<svg width="25" height="24" viewBox="0 0 25 24" fill="none" xmlns="http://www.w3.org/2000/svg">
<path d="M20.0302 5.32189C20.2199 5.32347 20.4056 5.37661 20.5671 5.47557C20.7287 5.57452 20.8599 5.71552 20.9466 5.8833C21.0333 6.05108 21.0722 6.23925 21.0591 6.42743C21.046 6.6156 20.9813 6.79663 20.8721 6.95089L19.824 8.43189C19.7596 13.5179 18.0486 16.9709 14.7382 18.6959C13.1607 19.4753 11.4178 19.8659 9.65646 19.8349C7.47858 19.8847 5.32645 19.3588 3.41997 18.3109C3.29172 18.2252 3.1926 18.1029 3.13567 17.9601C3.07875 17.8173 3.06669 17.6607 3.1011 17.5109C3.13331 17.3589 3.21112 17.2202 3.32425 17.1131C3.43739 17.006 3.58054 16.9355 3.73481 16.9109C5.01555 16.7331 6.27673 16.4364 7.50185 16.0249C2.01172 13.4999 3.20873 7.82389 3.73179 6.08089C3.78278 5.90785 3.87866 5.75118 4.00981 5.62662C4.14095 5.50205 4.30274 5.41397 4.47895 5.37122C4.65516 5.32846 4.83958 5.33254 5.0137 5.38303C5.18782 5.43352 5.34552 5.52866 5.47097 5.65889C7.07801 7.30512 9.20877 8.34748 11.5013 8.60889C11.4606 7.99643 11.5558 7.38257 11.7802 6.81075C12.0046 6.23893 12.3527 5.72314 12.7999 5.29989C13.5745 4.56906 14.6027 4.16329 15.6707 4.16702C16.7386 4.17074 17.764 4.58367 18.5334 5.31989L20.0302 5.32189ZM4.54756 17.7939C6.42053 18.6659 10.8102 19.6129 14.2715 17.8099C17.2439 16.2609 18.7738 13.0779 18.8191 8.34889C18.8211 8.19252 18.8709 8.04046 18.9619 7.91289L20.0493 6.37489L20.008 6.32189C19.487 6.31489 18.973 6.30789 18.4489 6.32189C18.2446 6.31724 18.0489 6.23866 17.8987 6.10089C17.3197 5.51738 16.5335 5.18296 15.7091 5.1695C14.8847 5.15604 14.0879 5.4646 13.4899 6.02889C13.1058 6.39206 12.8187 6.84458 12.6545 7.34563C12.4903 7.84668 12.4542 8.38049 12.5494 8.89889C12.5669 8.99547 12.5621 9.09474 12.5352 9.18917C12.5084 9.2836 12.4602 9.37071 12.3945 9.44389C12.3315 9.51771 12.2512 9.57502 12.1607 9.61076C12.0702 9.64651 11.9722 9.6596 11.8755 9.64889C9.17285 9.4614 6.63518 8.28795 4.74975 6.35389C4.0758 8.43189 3.2208 13.4479 8.64152 15.4189C8.7556 15.4596 8.85561 15.5318 8.92974 15.6272C9.00388 15.7225 9.04907 15.8369 9.05997 15.9569C9.07224 16.0751 9.05037 16.1943 8.99692 16.3006C8.94348 16.4068 8.86067 16.4957 8.75821 16.5569C7.43359 17.1991 6.01052 17.6171 4.54756 17.7939Z" fill="white"/>
</svg>