<svg width="19" height="18" viewBox="0 0 19 18" fill="none" xmlns="http://www.w3.org/2000/svg">
<path d="M15.0506 15.75C13.4286 15.75 11.8476 15.3905 10.3076 14.6715C8.76712 13.953 7.40288 13.003 6.21493 11.8215C5.02648 10.6405 4.07088 9.28425 3.34815 7.75275C2.62492 6.22175 2.26331 4.65 2.26331 3.0375C2.26331 2.8125 2.33875 2.625 2.48963 2.475C2.64051 2.325 2.82912 2.25 3.05544 2.25H6.11082C6.28685 2.25 6.44402 2.30625 6.58233 2.41875C6.72064 2.53125 6.80237 2.675 6.82752 2.85L7.31789 5.475C7.34303 5.65 7.34002 5.80925 7.30883 5.95275C7.27715 6.09675 7.20472 6.225 7.09156 6.3375L5.28097 8.175C5.80906 9.075 6.46917 9.91875 7.26131 10.7062C8.05344 11.4937 8.92731 12.175 9.8829 12.75L11.6558 10.9875C11.7689 10.875 11.9168 10.7905 12.0994 10.734C12.2814 10.678 12.4605 10.6625 12.6365 10.6875L15.2392 11.2125C15.4153 11.25 15.5599 11.3342 15.673 11.4653C15.7862 11.5967 15.8428 11.75 15.8428 11.925V14.9625C15.8428 15.1875 15.7673 15.375 15.6165 15.525C15.4656 15.675 15.277 15.75 15.0506 15.75Z" fill="white"/>
</svg>
