<svg width="25" height="24" viewBox="0 0 25 24" fill="none" xmlns="http://www.w3.org/2000/svg">
<path d="M7.84586 2H16.2953C19.5142 2 22.1295 4.6 22.1295 7.8V16.2C22.1295 17.7383 21.5148 19.2135 20.4207 20.3012C19.3266 21.3889 17.8426 22 16.2953 22H7.84586C4.62702 22 2.01172 19.4 2.01172 16.2V7.8C2.01172 6.26174 2.62639 4.78649 3.7205 3.69878C4.81461 2.61107 6.29855 2 7.84586 2ZM7.64468 4C6.68428 4 5.76322 4.37928 5.08412 5.05442C4.40501 5.72955 4.02349 6.64522 4.02349 7.6V16.4C4.02349 18.39 5.64297 20 7.64468 20H16.4965C17.4569 20 18.378 19.6207 19.0571 18.9456C19.7362 18.2705 20.1177 17.3548 20.1177 16.4V7.6C20.1177 5.61 18.4982 4 16.4965 4H7.64468ZM17.3515 5.5C17.685 5.5 18.0048 5.6317 18.2406 5.86612C18.4764 6.10054 18.6089 6.41848 18.6089 6.75C18.6089 7.08152 18.4764 7.39946 18.2406 7.63388C18.0048 7.8683 17.685 8 17.3515 8C17.018 8 16.6982 7.8683 16.4624 7.63388C16.2266 7.39946 16.0941 7.08152 16.0941 6.75C16.0941 6.41848 16.2266 6.10054 16.4624 5.86612C16.6982 5.6317 17.018 5.5 17.3515 5.5ZM12.0706 7C13.4045 7 14.6837 7.52678 15.6269 8.46447C16.5701 9.40215 17.1 10.6739 17.1 12C17.1 13.3261 16.5701 14.5979 15.6269 15.5355C14.6837 16.4732 13.4045 17 12.0706 17C10.7367 17 9.45744 16.4732 8.51424 15.5355C7.57104 14.5979 7.04115 13.3261 7.04115 12C7.04115 10.6739 7.57104 9.40215 8.51424 8.46447C9.45744 7.52678 10.7367 7 12.0706 7ZM12.0706 9C11.2703 9 10.5027 9.31607 9.93678 9.87868C9.37086 10.4413 9.05293 11.2044 9.05293 12C9.05293 12.7956 9.37086 13.5587 9.93678 14.1213C10.5027 14.6839 11.2703 15 12.0706 15C12.8709 15 13.6385 14.6839 14.2044 14.1213C14.7703 13.5587 15.0882 12.7956 15.0882 12C15.0882 11.2044 14.7703 10.4413 14.2044 9.87868C13.6385 9.31607 12.8709 9 12.0706 9Z" fill="white"/>
</svg>
