<svg width="12" height="18" viewBox="0 0 12 18" fill="none" xmlns="http://www.w3.org/2000/svg">
<path d="M6 8.77894C6.4125 8.77894 6.76575 8.60688 7.05975 8.26274C7.35325 7.91919 7.5 7.506 7.5 7.02316C7.5 6.54031 7.35325 6.12683 7.05975 5.78269C6.76575 5.43914 6.4125 5.26737 6 5.26737C5.5875 5.26737 5.2345 5.43914 4.941 5.78269C4.647 6.12683 4.5 6.54031 4.5 7.02316C4.5 7.506 4.647 7.91919 4.941 8.26274C5.2345 8.60688 5.5875 8.77894 6 8.77894ZM6 17.2287C5.9 17.2287 5.8 17.2067 5.7 17.1628C5.6 17.1189 5.5125 17.0604 5.4375 16.9873C3.6125 15.0998 2.25 13.3478 1.35 11.7313C0.45 10.1142 0 8.60337 0 7.19874C0 5.004 0.60325 3.25553 1.80975 1.95332C3.01575 0.651105 4.4125 0 6 0C7.5875 0 8.98425 0.651105 10.1902 1.95332C11.3967 3.25553 12 5.004 12 7.19874C12 8.60337 11.55 10.1142 10.65 11.7313C9.75 13.3478 8.3875 15.0998 6.5625 16.9873C6.4875 17.0604 6.4 17.1189 6.3 17.1628C6.2 17.2067 6.1 17.2287 6 17.2287Z" fill="#686868"/>
</svg>
