<svg width="12" height="11" viewBox="0 0 12 11" fill="none" xmlns="http://www.w3.org/2000/svg">
<path d="M10.5 1.08813H8.7V0.272032C8.7 0.199884 8.66839 0.130692 8.61213 0.0796763C8.55587 0.0286605 8.47957 0 8.4 0C8.32044 0 8.24413 0.0286605 8.18787 0.0796763C8.13161 0.130692 8.1 0.199884 8.1 0.272032V1.08813H3.9V0.272032C3.9 0.199884 3.86839 0.130692 3.81213 0.0796763C3.75587 0.0286605 3.67957 0 3.6 0C3.52044 0 3.44413 0.0286605 3.38787 0.0796763C3.33161 0.130692 3.3 0.199884 3.3 0.272032V1.08813H1.5C1.10232 1.08856 0.721067 1.232 0.439866 1.48699C0.158665 1.74197 0.000476357 2.08768 0 2.44829V9.52111C0.000476357 9.88172 0.158665 10.2274 0.439866 10.4824C0.721067 10.7374 1.10232 10.8808 1.5 10.8813H10.5C10.8977 10.881 11.2791 10.7376 11.5603 10.4826C11.8415 10.2276 11.9997 9.88176 12 9.52111V2.44829C11.9997 2.08764 11.8415 1.74184 11.5603 1.48683C11.2791 1.23181 10.8977 1.08842 10.5 1.08813ZM11.4 9.52111C11.4 9.73755 11.3052 9.94513 11.1364 10.0982C10.9676 10.2512 10.7387 10.3372 10.5 10.3372H1.5C1.26131 10.3372 1.03239 10.2512 0.863604 10.0982C0.694821 9.94513 0.6 9.73755 0.6 9.52111V4.89657H11.4V9.52111ZM11.4 4.35251H0.6V2.44829C0.6 1.9978 1.002 1.63219 1.5 1.63219H3.3V2.44829C3.3 2.52043 3.33161 2.58963 3.38787 2.64064C3.44413 2.69166 3.52044 2.72032 3.6 2.72032C3.67957 2.72032 3.75587 2.69166 3.81213 2.64064C3.86839 2.58963 3.9 2.52043 3.9 2.44829V1.63219H8.1V2.44829C8.1 2.52043 8.13161 2.58963 8.18787 2.64064C8.24413 2.69166 8.32044 2.72032 8.4 2.72032C8.47957 2.72032 8.55587 2.69166 8.61213 2.64064C8.66839 2.58963 8.7 2.52043 8.7 2.44829V1.63219H10.5C10.7387 1.63219 10.9676 1.71817 11.1364 1.87122C11.3052 2.02427 11.4 2.23184 11.4 2.44829V4.35251Z" fill="black"/>
</svg>
